<svg version="1.2" xmlns="http://www.w3.org/2000/svg" viewBox="0 0 28 32" width="28" height="32">
	<title>&lt;Group&gt;</title>
	<style>
		.s0 { fill: #d1232b } 
	</style>
	<g id="&lt;Group&gt;">
		<path id="&lt;Path&gt;" class="s0" d="m2.2 20v-9.4h1.4v9.2c0 3.2 0.9 4.7 3.3 4.7 1.8 0 3.1-1 4.8-3v-11h1.3v14.7h-1.1l-0.2-2.4h-0.1c-1.5 1.8-3 2.8-5 2.8-2.9 0-4.4-1.8-4.4-5.6z"/>
	</g>
	<g id="&lt;Group&gt;">
		<g id="&lt;Group&gt;">
			<path id="&lt;Compound Path&gt;" class="s0" d="m18.1 5.8c0-0.8 0.6-1.2 1.2-1.2 0.7 0 1.3 0.4 1.3 1.2 0 0.7-0.6 1.2-1.3 1.2-0.6 0-1.2-0.5-1.2-1.2zm0.6 4.7h1.3v14.7h-1.3z"/>
		</g>
	</g>
	<g id="&lt;Group&gt;">
		<path id="&lt;Path&gt;" class="s0" d="m25.8 2.3h1v28.5h-1z"/>
	</g>
</svg>